<svg height='100px' width='100px'  fill="#000000" xmlns="http://www.w3.org/2000/svg" xmlns:xlink="http://www.w3.org/1999/xlink" xml:space="preserve" version="1.1" style="shape-rendering:geometricPrecision;text-rendering:geometricPrecision;image-rendering:optimizeQuality;" viewBox="0 0 50000 50000" x="0px" y="0px" fill-rule="evenodd" clip-rule="evenodd"><path class="fil0" d="M5350.22 26196.79c2.24,2.99 4.43,6 6.57,9.09 406.98,588.94 448.42,1221.36 249.36,1768.73 -116.52,320.39 -316.53,610.11 -574.2,842.79l-0.56 0.48 0.56 0.61c-255.89,231.06 -569.77,406.32 -915.9,499.6 -638.66,172.07 -1383.66,65.49 -2071.4,-484.37 -695.81,-556.31 -982.17,-1484.24 -849.3,-2432.25 75.91,-541.64 288.08,-1090.63 638.02,-1578.77 348.85,-486.62 835.13,-914.31 1460.34,-1215.54 1401.2,-675.12 3500.82,-710.17 6304.32,683 54.27,26.96 108.59,54.03 162.98,81.19 -52.52,-303.83 -76.11,-626.66 -70.48,-953.6 -2074.39,-933.45 -3881.73,-1451.88 -6070.34,-1270.53 -151.83,12.5 -285.08,-100.47 -297.57,-252.3 -12.5,-151.83 100.47,-285.08 252.3,-297.57 2245.53,-186.06 4082.35,317.64 6156.69,1235.55 66.21,-535.82 211.01,-1062.56 435.63,-1515.18 365.44,-736.32 847.39,-1102.25 1317.25,-1212.66 254.4,-59.75 504.52,-44.07 732.18,29.3 226.15,72.89 428.57,202.73 589.4,371.86 294.4,309.58 452.51,751.99 366.04,1220.07 -37.54,203.15 -113.15,381.88 -215.78,531.65 -135.36,197.54 -318.23,345.93 -523.94,435.29 -207.64,90.15 -437.5,119.22 -664.68,77.27 -156.95,-28.99 -311.28,-91.03 -454.52,-189.17 -125.62,-85.75 -157.97,-257.14 -72.22,-382.77 85.75,-125.63 257.14,-157.98 382.77,-72.22 78.94,54.08 161.4,87.81 243.15,102.9 118.62,21.91 238.91,6.62 347.7,-40.62 110.7,-48.08 210.73,-130.26 286.75,-241.22 61.39,-89.6 106.78,-197.26 129.51,-320.3 52.39,-283.64 -44.18,-552.54 -223.73,-741.34 -98.85,-103.95 -222.06,-183.38 -358.64,-227.4 -135.09,-43.54 -284.91,-52.52 -438.93,-16.34 -323.26,75.96 -666.67,351.52 -948.49,919.37 -220.65,444.62 -353.86,975.7 -401,1511.59 846.54,393.75 1739.56,849.82 2720.49,1350.85 594.99,303.9 1223.81,625.1 1953.67,987.79 136.35,67.28 192.35,232.39 125.07,368.75 -67.28,136.35 -232.39,192.35 -368.75,125.07 -657.9,-326.93 -1326.96,-668.69 -1960.14,-992.09 -893.11,-456.17 -1711.67,-874.26 -2487.14,-1240.46 11.92,363.5 64.77,712.57 158.01,1020.36 391.71,198.18 780.65,396.83 1156.9,589.01 3556.8,1816.7 5931.33,3029.52 9110.22,2766.13 1464.11,-121.31 2528.69,-726.35 3198.82,-1509.88 406.3,-475.05 667.91,-1015.83 785.39,-1552.99 115.76,-529.3 91.25,-1052.38 -73.13,-1501.19 -181.99,-496.88 -538.83,-905.1 -1069.57,-1127.88 -618.69,-259.72 -1186.91,-243.46 -1644.85,-60.31 -236.23,94.48 -443.86,232.95 -614.35,400.33 -169.02,165.94 -301.75,361.15 -389.65,570.52 -142.06,338.46 -163.97,711.6 -27.8,1052.08 166.71,416.87 522.25,658.55 883.32,724.74 150.42,27.57 301.01,24.42 438.01,-9.49 129.05,-31.95 244.24,-90.74 332.48,-176.08 59.36,-57.42 107.92,-128.74 142.13,-214.25 -5.83,0.16 -11.7,0.29 -17.59,0.29 -327.01,0 -592.14,-265.13 -592.14,-592.16 0,-327.01 265.13,-592.14 592.14,-592.14 282.09,0 518.11,197.28 577.64,461.38 1.8,6.39 3.42,12.85 4.79,19.43 122.11,588.56 -31.38,1027.74 -325.29,1312.08 -161.86,156.56 -363.26,261.93 -582.62,316.23 -211.42,52.34 -441.31,57.65 -668.73,15.97 -529.85,-97.12 -1051.22,-451.03 -1295.23,-1061.15 -193.25,-483.21 -165.77,-1004.08 29.98,-1470.43 115.16,-274.31 289.75,-530.73 512.57,-749.49 221.39,-217.36 490.29,-396.88 795.5,-518.94 583.99,-233.55 1298.48,-258.54 2063.19,62.47 597.6,250.85 1023.36,683.95 1276.6,1215.86 253.24,-531.91 679,-965.01 1276.6,-1215.86 783.22,-328.79 1517.07,-293.11 2111.57,-42.23 296.48,125.1 557.2,303.5 771.43,516.81 216.71,215.79 386.68,466.73 498.99,734.31 196.42,467.87 220.52,989.76 17.09,1471.82 -153.96,364.87 -387.97,656.46 -681.51,845.14 -290.45,186.69 -634.32,271.81 -1012.47,227.85 -125.94,-14.63 -256.33,-45.08 -382.4,-91.6 -239.86,-88.51 -468.5,-236.66 -630.53,-447.41 -169.51,-220.53 -264.52,-501.79 -224.72,-844.39 13.64,-117.39 43.17,-241.15 91.11,-371.03 8.43,-22.98 19.62,-44.16 33.01,-63.32 97.93,-192 297.52,-323.5 527.81,-323.5 327.03,0 592.16,265.13 592.16,592.14 0,327.03 -265.13,592.16 -592.16,592.16 -15.03,0 -29.96,-0.57 -44.71,-1.67 15.42,29.6 33.23,57.35 53.1,83.19 93.79,121.98 234.03,210.68 384.68,266.27 84.91,31.34 171.91,51.74 255.18,61.42 246.37,28.64 467.78,-25.11 652.35,-143.75 199.89,-128.5 362.12,-333.82 472.33,-594.99 142,-336.53 122.38,-707.52 -19.23,-1044.84 -85.55,-203.83 -214.42,-394.38 -378.24,-557.51 -166.34,-165.61 -368.05,-303.8 -596.76,-400.32 -466.78,-196.99 -1050.78,-221.7 -1684.58,44.37 -530.74,222.78 -887.58,631 -1069.57,1127.88 -164.38,448.81 -188.89,971.89 -73.13,1501.19 117.48,537.16 379.09,1077.94 785.39,1552.99 670.13,783.53 1734.71,1388.57 3198.82,1509.88 3178.89,263.39 5553.42,-949.43 9110.22,-2766.13 309.88,-158.27 628.33,-320.94 949.9,-484.12 106.51,-309.24 169.49,-666.39 188.41,-1041.31 -723.05,345.68 -1484.9,734.81 -2310.54,1156.52 -633.18,323.4 -1302.24,665.16 -1960.14,992.09 -136.36,67.28 -301.47,11.28 -368.75,-125.07 -67.28,-136.36 -11.28,-301.47 125.07,-368.75 729.86,-362.69 1358.68,-683.89 1953.67,-987.79 916.7,-468.22 1756.69,-897.25 2553.64,-1272.77 -40.66,-562.19 -175.88,-1123.45 -407.24,-1589.67 -281.82,-567.85 -625.23,-843.41 -948.48,-919.37 -154.02,-36.18 -303.85,-27.2 -438.93,16.34 -136.58,44.02 -259.8,123.45 -358.65,227.4 -179.54,188.8 -276.11,457.7 -223.72,741.34 22.72,123.04 68.12,230.7 129.51,320.3 76.01,110.96 176.04,193.14 286.75,241.22 108.79,47.24 229.08,62.53 347.69,40.62 81.76,-15.09 164.22,-48.82 243.16,-102.9 125.63,-85.76 297.02,-53.41 382.77,72.22 85.75,125.63 53.4,297.02 -72.23,382.77 -143.24,98.14 -297.57,160.18 -454.51,189.17 -227.19,41.95 -457.04,12.88 -664.68,-77.27 -205.71,-89.36 -388.59,-237.75 -523.95,-435.29 -102.62,-149.77 -178.24,-328.5 -215.77,-531.65 -86.47,-468.08 71.63,-910.49 366.04,-1220.07 160.83,-169.13 363.24,-298.97 589.4,-371.86 227.66,-73.37 477.77,-89.05 732.17,-29.3 469.87,110.41 951.82,476.34 1317.25,1212.66 234.9,473.3 382.5,1027.61 444.21,1588.64 2142.3,-964.26 4016.51,-1499.98 6321.2,-1309.01 151.83,12.49 264.8,145.74 252.3,297.57 -12.49,151.83 -145.74,264.8 -297.57,252.3 -2248.95,-186.35 -4095.41,366.28 -6242.64,1348.77 1,334.51 -28.72,663.43 -88.8,970.72 118.04,-59.2 236,-118.1 353.6,-176.55 2803.5,-1393.17 4903.12,-1358.12 6304.32,-683 625.21,301.23 1111.49,728.92 1460.34,1215.54 349.94,488.14 562.11,1037.13 638.02,1578.77 132.87,948.01 -153.49,1875.94 -849.3,2432.25 -687.74,549.86 -1432.74,656.44 -2071.4,484.37 -346.13,-93.28 -660.01,-268.54 -915.9,-499.6l0.56 -0.61 -0.56 -0.48c-257.67,-232.68 -457.68,-522.4 -574.2,-842.79 -199.06,-547.37 -157.62,-1179.79 249.36,-1768.73 4.86,-7.02 9.99,-13.72 15.35,-20.16 105.07,-165.12 289.69,-274.66 499.89,-274.66 327.03,0 592.16,265.12 592.16,592.14 0,327.03 -265.13,592.16 -592.16,592.16 -105.81,0 -205.12,-27.79 -291.09,-76.43 -64.42,266.07 -42.86,529.08 44.05,768.06 85.7,235.62 233.7,449.57 424.87,622.36l0.54 -0.59c193.23,174.48 429.53,306.64 689.45,376.68 483.64,130.3 1053.02,45.47 1586.22,-380.84 535.96,-428.51 753.5,-1164.87 646.59,-1927.64 -63.74,-454.78 -243.6,-918.13 -541,-1332.97 -298.49,-416.37 -715.06,-782.56 -1251.15,-1040.84 -1265.14,-609.57 -3194.81,-624.36 -5821.29,680.84 -284.89,141.56 -554.4,276.83 -812.48,407.18 -451.35,1136.42 -1329.3,2222.81 -2526.41,3101.7 -1177.03,864.15 -2666.24,1530.25 -4363.48,1846.55 -676.9,126.14 -1349.29,193.23 -2001.4,200.22 -1528.7,16.42 -2941.88,-299.57 -4040.35,-960.2 -924.11,-555.76 -1625.06,-1351.44 -1988.06,-2394.07 -363.01,1042.63 -1063.96,1838.31 -1988.06,2394.07 -1098.47,660.63 -2511.65,976.62 -4040.35,960.2 -652.11,-6.99 -1324.5,-74.08 -2001.4,-200.22 -1697.24,-316.3 -3186.45,-982.4 -4363.49,-1846.55 -1235.05,-906.77 -2130.39,-2034.41 -2568.03,-3209.95 -192.15,-96.68 -390.9,-196.14 -597.77,-298.93 -2626.48,-1305.2 -4556.15,-1290.41 -5821.29,-680.84 -536.09,258.28 -952.66,624.47 -1251.15,1040.84 -297.4,414.84 -477.26,878.19 -541,1332.97 -106.91,762.77 110.63,1499.13 646.59,1927.64 533.2,426.31 1102.58,511.14 1586.22,380.84 259.92,-70.04 496.22,-202.2 689.45,-376.68l0.54 0.59c191.17,-172.79 339.17,-386.74 424.87,-622.36 84.4,-232.09 107.17,-486.84 49.4,-745.07 -84.05,45.8 -180.44,71.84 -282.92,71.84 -327.01,0 -592.14,-265.13 -592.14,-592.16 0,-327.01 265.13,-592.14 592.14,-592.14 207.07,0 389.3,106.34 495.15,267.33zm36102.42 4469.3c327.03,0 592.16,265.12 592.16,592.14 0,327.03 -265.13,592.16 -592.16,592.16 -251.44,0 -466.26,-156.77 -552.14,-377.86l-31559.83 0c-85.88,221.09 -300.72,377.86 -552.16,377.86 -327.01,0 -592.14,-265.13 -592.14,-592.16 0,-327.02 265.13,-592.14 592.14,-592.14 273.85,0 504.24,185.92 571.96,438.41l31520.23 0c67.72,-252.49 298.11,-438.41 571.94,-438.41zm-550.63 -9285.03c376.7,-154.63 757.33,-284.69 1143.04,-389.91 369.28,-100.75 741.8,-178.44 1118.5,-232.85 -76.66,-131.26 -174.85,-237.05 -293.15,-307.9 -177.15,-106.08 -409.6,-138.1 -694.86,-64.51l-517.08 133.41 192.55 -498.94c64.44,-167.01 109.38,-375.7 80.71,-575.71 -15.55,-108.57 -54.3,-215.61 -126.42,-311.88 -148.85,13.89 -253.79,69.74 -332.83,150.93 -116,119.13 -199.17,303.47 -278.17,499.65l-191.5 475.55 -290.47 -421.63c-48.05,-69.74 -97.27,-126.73 -146.97,-172.24 -143.41,-131.33 -302.86,-179.4 -455.46,-174.15 -121.71,4.18 -241.5,41.05 -348.25,96.77 268.61,228.23 485.16,486.85 659.02,754.33 226.11,347.92 379.58,710.26 481.34,1039.08zm1287.53 140.57c-457.4,124.78 -909.53,287.74 -1358.45,488.41l-305.24 136.45 -75.37 -326.21c-81.15,-351.13 -230.85,-777.83 -491.29,-1178.54 -197.3,-303.53 -458.73,-592.78 -802.85,-822.87l-265.96 -177.82 216.35 -236.22c69.43,-75.81 150.91,-146.97 240.73,-208.85 207.6,-143 469.43,-245.5 745.18,-254.97 258.23,-8.87 525.22,62.36 768.35,254.49 60.64,-107.25 130.75,-207.26 216.85,-295.66 201.38,-206.85 468.48,-334.68 858.24,-319.6l106.34 4.13 75.89 73.49c216.59,209.82 322.96,457.81 358.98,709.18 20.75,144.83 17.22,290 -2.16,428.27 255.89,0.31 482.69,66.03 677.77,182.84 326.82,195.7 552.57,529.13 668.41,933.28l90.37 315.33 -327.58 34.03c-474.23,49.28 -938.37,136.37 -1394.56,260.84zm-33155.86 488.41c-448.93,-200.67 -901.05,-363.63 -1358.46,-488.41 -456.19,-124.47 -920.34,-211.56 -1394.57,-260.84l-327.6 -34.05 90.39 -315.31c115.85,-404.15 341.62,-737.58 668.43,-933.28 195.09,-116.81 421.87,-182.53 677.76,-182.84 -19.37,-138.27 -22.91,-283.4 -2.15,-428.26 36.01,-251.36 142.37,-499.34 358.96,-709.19l75.87 -73.49 106.36 -4.13c389.76,-15.08 656.88,112.77 858.28,319.58 86.08,88.42 156.19,188.43 216.82,295.68 243.14,-192.13 510.13,-263.36 768.36,-254.49 275.74,9.47 537.58,111.97 745.18,254.97 89.82,61.88 171.3,133.04 240.73,208.85l216.35 236.22 -265.96 177.82c-344.13,230.09 -605.56,519.34 -802.86,822.87 -260.43,400.71 -410.13,827.41 -491.28,1178.54l-75.37 326.21 -305.24 -136.45zm-1213.97 -1018.89c385.72,105.22 766.35,235.28 1143.05,389.91 101.76,-328.82 255.23,-691.16 481.34,-1039.08 173.86,-267.48 390.41,-526.1 659.01,-754.33 -106.74,-55.72 -226.54,-92.59 -348.24,-96.77 -152.61,-5.25 -312.06,42.82 -455.46,174.15 -49.7,45.51 -98.92,102.5 -146.97,172.24l-290.49 421.65 -191.48 -475.57c-78.98,-196.2 -162.16,-380.54 -278.16,-499.67 -79.05,-81.17 -183.99,-137.02 -332.84,-150.91 -72.12,96.27 -110.87,203.33 -126.42,311.9 -28.67,200.01 16.26,408.68 80.71,575.69l192.55 498.94 -517.08 -133.41c-285.26,-73.59 -517.71,-41.57 -694.86,64.51 -118.3,70.85 -216.49,176.64 -293.15,307.9 376.69,54.41 749.21,132.1 1118.49,232.85zm17167.54 276.67c111.42,-148.71 259.26,-302.86 465.89,-441.86 299.28,-201.33 716.86,-362.09 1316.14,-406.93 -34.17,-20.68 -69.59,-40.06 -105.88,-58.08 -276.65,-137.36 -587.19,-192.71 -784.93,-164.25l-288.19 41.5 -25.56 -290.56c-20.88,-237.43 -118.61,-493.51 -249.47,-717.09 -99.88,-170.67 -215.66,-318.64 -328,-421.15 -112.34,102.51 -228.13,250.48 -328.01,421.15 -130.85,223.58 -228.58,479.66 -249.47,717.09l-25.56 290.56 -288.18 -41.5c-197.74,-28.46 -508.29,26.89 -784.93,164.25 -36.29,18.02 -71.72,37.4 -105.89,58.08 599.28,44.84 1016.87,205.6 1316.15,406.93 206.63,139 354.47,293.15 465.89,441.86zm772.09 15.31c-292.33,196.65 -431.96,459.85 -527.33,643.48l-244.76 471.22 -244.76 -471.22c-95.37,-183.63 -235.01,-446.83 -527.33,-643.48 -309.16,-207.98 -798.57,-359.86 -1607.09,-319.73l-434.65 21.58 167.26 -402.18c133.92,-322.02 412.57,-559.66 726.74,-715.67 271.04,-134.57 576.13,-209.52 834.82,-224.7 56.38,-238.7 158.03,-477.28 282.58,-690.07 188.44,-322.03 436.29,-593.06 665.5,-724.34l136.93 -78.41 136.92 78.41c229.21,131.28 477.06,402.31 665.51,724.34 124.54,212.79 226.19,451.37 282.57,690.07 258.69,15.18 563.79,90.13 834.82,224.7 314.17,156.01 592.82,393.65 726.75,715.67l167.25 402.18 -434.64 -21.58c-808.53,-40.13 -1297.93,111.75 -1607.09,319.73zm13270.86 4315.97l-338.22 172.68c-3642.48,1860.48 -6074.23,3102.52 -9405.64,2826.48 -1624.48,-134.61 -2815.09,-816.9 -3571.88,-1701.77 -158.42,-185.21 -297.78,-379.31 -418.12,-579.17 252.04,1156.89 935.21,2017.04 1887.67,2589.86 1010.15,607.51 2323.54,897.96 3753.55,882.59 617.89,-6.62 1258.39,-70.83 1906.52,-191.61 1610.68,-300.17 3022.48,-931.21 4137.04,-1749.5 893.65,-656.11 1593.82,-1431.01 2049.08,-2249.56zm-14613.32 1136.23c-42.24,54.4 -85.99,108.15 -131.34,161.16 -756.79,884.87 -1947.4,1567.16 -3571.88,1701.77 -3331.41,276.04 -5763.16,-966 -9405.64,-2826.48 -188.24,-96.15 -379.89,-194.03 -577.03,-294.41 452.2,863.38 1176.98,1682.74 2114.81,2371.29 1114.56,818.29 2526.35,1449.33 4137.03,1749.5 648.14,120.78 1288.64,184.99 1906.52,191.61 1430.02,15.37 2743.4,-275.08 3753.55,-882.59 833.97,-501.57 1461.56,-1223.38 1773.98,-2171.85z"></path></g></svg>
