<svg height='100px' width='100px'  fill="#000000" xmlns="http://www.w3.org/2000/svg" xmlns:xlink="http://www.w3.org/1999/xlink" xml:space="preserve" version="1.1" style="shape-rendering:geometricPrecision;text-rendering:geometricPrecision;image-rendering:optimizeQuality;" viewBox="0 0 50000 50000" x="0px" y="0px" fill-rule="evenodd" clip-rule="evenodd"><g><path class="fil0" d="M1334.66 40178.2c-196.75,-100.1 -275.1,-340.75 -175,-537.5 100.1,-196.75 340.75,-275.1 537.5,-175 1195.3,608.59 2407.16,1009.01 3630.83,1255.27 1232.52,248.05 2481.8,342.02 3741.37,335.94 564.36,-2.72 1177.42,-29.51 1778.63,-112.67 584.96,-80.91 1152.78,-214.91 1640.58,-432.16 201.06,-89.74 436.82,0.5 526.56,201.56 89.74,201.06 -0.5,436.82 -201.56,526.56 -565.47,251.84 -1205.54,404.66 -1856.2,494.66 -634.4,87.75 -1284.82,116.04 -1884.89,118.93 -1309.27,6.31 -2611.16,-92.02 -3900.75,-351.56 -1298.41,-261.31 -2579.67,-683.82 -3837.07,-1324.03zm38860.82 -20854.77l-0.21 0.07c-53.79,17.68 -97.97,87.13 -125.89,185.15 -43.38,152.25 -37.1,348 29.13,551.1 66.53,203.99 176.49,365.84 300.5,462.62 80.06,62.48 157.21,92.13 212.4,74.13l0.43 -0.14c53.68,-17.78 97.77,-87.18 125.66,-185.06 43.39,-152.26 37.11,-348.02 -29.12,-551.12 -66.53,-203.99 -176.49,-365.83 -300.5,-462.61 -80.06,-62.48 -157.21,-92.14 -212.4,-74.14zm-174.6 -779.69c300.8,-71.37 611.37,17.92 877.62,225.71 243.7,190.19 452.72,486.5 569.24,843.78l-0.94 0.31 0.96 -0.24c116.78,358.1 122.94,720.46 38.5,1016.76 -99.85,350.43 -323.72,620.08 -647.95,725.82l-62.28 20.31 -10.02 0c-300.77,71.37 -611.36,-17.9 -877.62,-225.7 -238.35,-186.02 -443.48,-473.52 -561.39,-820.28l-28.17 -56.34 0 -33.36c-96.89,-336.29 -97.44,-672.54 -18.21,-950.62 99.87,-350.46 323.76,-620.1 647.97,-725.84l62.27 -20.31 10.02 0zm6882.14 4360.77c285.34,524.39 412.18,1069.82 371.02,1540.93 -44.71,511.87 -278.84,942.41 -713.18,1194.33 -242.35,140.57 -554.24,223.77 -873.16,229.86 -269.19,5.14 -547.32,-44.29 -797.37,-160.11 -264.75,-122.62 -498,-316.99 -659.89,-596.09 -131.64,-226.96 -212.61,-506.98 -219.08,-845.81 -8.48,-443.61 -98.3,-895.53 -177.45,-1293.79 -156.13,-785.62 -278.96,-1403.69 218.4,-1789.57 30.91,-23.98 64.49,-45.77 100.52,-65.36 364.17,-198.17 843.38,-68.63 1312.86,239.42 386.92,253.86 791.51,639.27 1101.57,1038.91 129.45,166.85 244.03,338.7 335.76,507.28zm-425.86 1472.17c28.13,-321.96 -65.66,-707.78 -274.14,-1090.91 -70.01,-128.67 -161.26,-264.72 -267.02,-401.04 -256.97,-331.21 -590.45,-649.43 -907.81,-857.65 -230.31,-151.11 -418.83,-241.6 -490.05,-210.15 -102.5,84.61 -22.03,489.64 80.15,1003.78 84.24,423.84 179.82,904.79 189.95,1434.41 3.64,190.95 45.32,341.93 112.82,458.31 72.71,125.35 180.27,213.95 303.65,271.09 138.09,63.96 295.55,91.18 450.49,88.23 182.28,-3.48 355.7,-48.22 485.66,-123.6 189.96,-110.18 294.02,-317.41 316.3,-572.47zm-25610.98 -10115.48c-157.92,153.6 -410.47,150.11 -564.07,-7.81 -153.6,-157.92 -150.11,-410.47 7.81,-564.07 647.56,-631.44 1346.93,-1195.37 2084.31,-1692.24 762.49,-513.78 1571.05,-959.13 2409.79,-1336.18 201.06,-89.74 436.82,0.5 526.56,201.56 89.74,201.06 -0.5,436.82 -201.56,526.56 -790.6,355.41 -1558.08,778.79 -2287.91,1270.56 -702.62,473.44 -1365.43,1007.3 -1974.93,1601.62zm5704.07 -3438.28c-208.83,70.76 -435.5,-41.17 -506.26,-250 -70.76,-208.83 41.17,-435.5 250,-506.26 300.34,-101.94 609.2,-197.09 925.91,-285.3 320.85,-89.35 634.97,-167.78 941.81,-235.18 215.73,-46.6 428.41,90.52 475.01,306.25 46.6,215.73 -90.52,428.41 -306.25,475.01 -310.44,68.19 -610.02,142.46 -898.07,222.68 -290.99,81.04 -585.21,172.02 -882.15,272.8zm3216.47 -747.22c-218.32,27.61 -417.7,-126.99 -445.31,-345.31 -27.61,-218.32 126.99,-417.7 345.31,-445.31 1129.99,-146.42 2254.55,-179.87 3341.33,-101.04 1085.77,78.75 2139.95,269.83 3130.62,572.54 210.55,63.86 329.48,286.33 265.62,496.88 -63.86,210.55 -286.33,329.48 -496.88,265.62 -928.48,-283.7 -1923.84,-463.32 -2955.62,-538.16 -1040.98,-75.5 -2112.98,-44.13 -3185.07,94.78zm-169.13 22585.82c220.05,13.8 387.24,203.39 373.44,423.44 -13.8,220.05 -203.39,387.24 -423.44,373.44 -1248.91,-82.56 -2351.3,-552.92 -3158.14,-1271.34 -824.31,-733.97 -1342.1,-1726.26 -1399.79,-2832.7 -11.21,-220.05 158.08,-407.54 378.13,-418.75 220.05,-11.21 407.54,158.08 418.75,378.13 46.06,883.42 465.64,1681.17 1134.17,2276.44 679.14,604.71 1613.22,1001.03 2676.88,1071.34zm7571.52 580.34c219.19,18.98 381.48,212.07 362.5,431.26 -18.98,219.19 -212.07,381.48 -431.26,362.5 -2017.7,-181.38 -3728.11,-862.07 -5029.29,-1845.53 -1410,-1065.72 -2343.48,-2488.02 -2674.43,-4021.92 -45.73,-215.73 92.09,-427.71 307.82,-473.44 215.73,-45.73 427.71,92.09 473.44,307.82 290.4,1345.94 1119.12,2601.24 2374.43,3550.04 1189.89,899.34 2759.53,1522.32 4616.79,1689.27zm7404.62 3520.87c180.35,125.99 224.42,374.34 98.43,554.69 -125.99,180.35 -374.34,224.42 -554.69,98.43 -2762.66,-1937.57 -6043.98,-1529.34 -9159.65,-1141.71 -2830.11,352.1 -5530.07,688 -7741.51,-671.44 -188.12,-115.63 -246.88,-361.89 -131.25,-550.01 115.63,-188.12 361.89,-246.88 550.01,-131.25 1972.44,1212.52 4537.34,893.43 7225.87,558.94 3261.54,-405.78 6696.48,-833.12 9712.79,1282.35zm3401.14 -715.42c107.86,192.43 39.3,435.89 -153.13,543.75 -192.43,107.86 -435.89,39.3 -543.75,-153.13 -1441.59,-2567.97 -3771.97,-3180.27 -6409.19,-3873.19 -863.77,-226.94 -1759.15,-462.2 -2670.41,-774.23 -964.37,-330.2 -1830.02,-729.78 -2569.73,-1196.96 -1138.22,-718.86 -1979.75,-1599.76 -2429.08,-2637.51 -455,-1050.85 -504.15,-2245.05 -49.03,-3574.23 196.74,-574.59 488.4,-1174.78 883.12,-1799.76 117.36,-186.39 363.61,-242.36 550,-125 186.39,117.36 242.36,363.61 125,550 -359.98,569.98 -624.76,1113.79 -801.86,1631.02 -387.51,1131.72 -352.03,2133.81 24.03,3002.35 381.75,881.67 1117.83,1643.41 2122.82,2278.13 684.94,432.59 1493.93,805.12 2400.99,1115.7 890.45,304.9 1769.37,535.84 2617.27,758.61 2811.42,738.69 5295.73,1391.43 6902.95,4254.45zm-46257.92 363.07c-220.05,5.18 -402.64,-169.01 -407.82,-389.06 -5.18,-220.05 169.01,-402.64 389.06,-407.82 6134.27,-162.26 7358.87,-5175.74 8512.06,-9896.94 175.09,-716.83 348.6,-1427.14 541.53,-2130.68 75.11,-273.92 152.44,-543.77 232.89,-808.29 80.37,-264.24 164.67,-525.59 254.07,-783.45 71.62,-207.96 298.29,-318.49 506.25,-246.87 207.96,71.62 318.49,298.29 246.87,506.25 -84.71,244.34 -166.01,496.65 -244.69,755.33 -78.59,258.41 -153.81,520.84 -226.63,786.41 -184.73,673.65 -359.21,1387.95 -535.29,2108.8 -1223.46,5008.89 -2522.69,10327.89 -9268.3,10506.32zm11601.88 -17105.86c-102.69,195.02 -344.05,269.88 -539.07,167.19 -195.02,-102.69 -269.88,-344.05 -167.19,-539.07 886.23,-1684.64 1868.29,-3169.6 2923.07,-4471.18 1118.52,-1380.24 2316.39,-2551.59 3566.57,-3534 1913.24,-1503.46 3952.72,-2568.38 6020.92,-3265.29 2274.62,-766.47 4582.33,-1085.74 6793.54,-1052.4 287.92,4.33 566.06,14.39 834.33,29.89 278.12,16.08 559.37,38.4 843.09,66.67 219.19,21.57 379.39,216.75 357.82,435.94 -21.57,219.19 -216.75,379.39 -435.94,357.82 -265.78,-26.48 -535.48,-47.76 -808.73,-63.55 -276.28,-15.97 -543.22,-26.03 -799.95,-29.89 -2125.69,-32.05 -4344.22,274.89 -6531.04,1011.78 -1982.2,667.93 -3939.84,1690.9 -5780.28,3137.15 -1208.01,949.28 -2364,2079.29 -3441.57,3409 -1020.67,1259.5 -1973.2,2700.66 -2835.57,4339.94zm23178.66 -11282.04c-214.01,-53.5 -344.12,-270.37 -290.62,-484.38 53.5,-214.01 270.37,-344.12 484.38,-290.62 3344.91,838.07 6629.15,2745.52 8477.79,4710.01 578.43,614.68 1021.77,1239.51 1290.34,1845.57 285.48,644.21 377.04,1272.37 231.22,1854.33 -105.11,419.53 -331.22,806.07 -693.9,1147.36 -1460.5,1374.37 -3020.39,373.32 -4574.57,-624.07 -1139.35,-731.17 -2275.11,-1460.02 -3167.18,-990.21 -953.53,502.18 -1008.36,1763.63 -1058.31,2913.36 -23.38,538.05 -45.83,1054.65 -149.75,1501.26 -244.98,1052.8 -849.75,1691.11 -2541.31,1297.51 -214.87,-50.05 -348.48,-264.82 -298.43,-479.69 50.05,-214.87 264.82,-348.48 479.69,-298.43 1071.78,249.39 1443.32,-104.96 1581.93,-700.65 88.7,-381.2 109.42,-857.9 130.99,-1354.38 59.46,-1368.37 124.7,-2869.72 1483.31,-3585.24 1303.77,-686.63 2634.93,167.62 3970.32,1024.59 1292.5,829.46 2589.78,1661.97 3596.43,714.69 245.74,-231.25 397.42,-487 465.78,-759.86 100.19,-399.87 27.04,-854.59 -187.48,-1338.69 -231.43,-522.25 -623.48,-1071.32 -1140.34,-1620.57 -1754.96,-1864.95 -4888.28,-3679.63 -8090.29,-4481.89zm-3399.28 11748.98c214.87,48.32 349.88,261.69 301.56,476.56 -48.32,214.87 -261.69,349.88 -476.56,301.56 -333.24,-75.42 -597.82,-82.36 -804.11,-38.38 -172.75,36.83 -300.82,111.25 -391.6,210.05 -94.92,103.29 -156.52,238.51 -190.74,389.72 -52.41,231.57 -41.72,497.2 12.74,752.68 115.66,542.53 107.37,1055.5 7.17,1540.34 -99.31,480.5 -287.34,927.52 -533.12,1344.38 -112.18,189.84 -357.04,252.8 -546.88,140.62 -189.84,-112.18 -252.8,-357.04 -140.62,-546.88 204.63,-347.07 359.88,-712.91 439.36,-1097.5 78.59,-380.26 84.62,-784.76 -7.17,-1215.34 -76.46,-358.67 -88.9,-742.97 -9.6,-1093.3 63.95,-282.53 186.58,-543.37 381.36,-755.34 198.9,-216.46 466.08,-376.63 813.48,-450.69 312.52,-66.63 691.16,-61.13 1144.73,41.52zm-3720.19 6029.4c196.75,-98.37 436.01,-18.63 534.38,178.12 98.37,196.75 18.63,436.01 -178.12,534.38 -1027.98,516.02 -2004.86,374.43 -2975.47,233.74 -1218.07,-176.57 -2424.68,-351.47 -3568.99,1138.94l-31.38 40.94c-568.2,763.19 -797.9,1729.41 -622.67,2707.26 178.36,995.36 776.16,2007.05 1862.76,2841.34 37.46,28.75 63.25,48.4 76.65,58.37 176.9,131.16 213.97,380.91 82.81,557.81 -131.16,176.9 -380.91,213.97 -557.81,82.81 -41.37,-30.8 -69.83,-52.18 -86.03,-64.61 -1256.4,-964.66 -1951.11,-2153.93 -2162.76,-3335.1 -214.8,-1198.68 67.91,-2384.65 766.43,-3322.88l37.62 -50.32c1430.69,-1863.4 2866.45,-1655.28 4315.87,-1445.18 849.52,123.14 1704.51,247.06 2506.71,-155.62zm-20325.54 18534.95c-220.05,0.86 -399.14,-176.83 -400,-396.88 -0.86,-220.05 176.83,-399.14 396.88,-400 2193.75,-10.58 3673.45,-584.35 5148.32,-1156.21 1574.77,-610.6 3144.32,-1219.18 5547.25,-1197.34 2517.54,22.89 3902.24,446.26 5368.77,894.63 1598.43,488.7 3297.69,1008.24 6772.99,1036.32 1936.54,15.64 3426.4,-326.75 4857.13,-655.55 1457.63,-334.99 2855.85,-656.33 4623.11,-594.24 220.05,6.9 392.84,190.89 385.94,410.94 -6.9,220.05 -190.89,392.84 -410.94,385.94 -1661.88,-58.38 -3012.25,251.96 -4419.99,575.48 -1472.43,338.39 -3005.71,690.76 -5041.51,674.31 -3590.91,-29.01 -5346.54,-565.79 -6997.99,-1070.7 -1410.46,-431.23 -2742.23,-838.41 -5143.77,-860.25 -2249.76,-20.45 -3749.13,560.92 -5253.49,1144.22 -1542.32,598.02 -3089.71,1198.02 -5432.7,1209.33zm6485.29 -4087.49c-207.96,74.21 -436.73,-34.22 -510.94,-242.18 -74.21,-207.96 34.22,-436.73 242.18,-510.94 624.52,-223.14 1277.97,-425.01 2010.59,-570.02 728.58,-144.21 1534.09,-230.28 2465.33,-221.82 2517.55,22.88 3902.24,446.25 5368.77,894.63 1598.43,488.7 3297.69,1008.24 6772.99,1036.32 1936.54,15.64 3426.4,-326.75 4857.13,-655.56 2916.85,-670.34 5597.08,-1286.3 11247.81,1073.85 203.65,84.57 300.19,318.23 215.62,521.88 -84.57,203.65 -318.23,300.19 -521.88,215.62 -5416.07,-2262.14 -7976.72,-1673.66 -10763.43,-1033.23 -1472.43,338.4 -3005.71,690.77 -5041.51,674.32 -3590.9,-29.01 -5346.54,-565.79 -6997.99,-1070.7 -1410.47,-431.24 -2742.23,-838.42 -5143.77,-860.25 -864.59,-7.85 -1618.97,73.34 -2305.95,209.32 -682.95,135.18 -1300.82,326.48 -1894.95,538.76z"></path></g></svg>
